<?xml version="1.0" encoding="UTF-8" standalone="no"?>
<svg
   xmlns:dc="http://purl.org/dc/elements/1.1/"
   xmlns:cc="http://creativecommons.org/ns#"
   xmlns:rdf="http://www.w3.org/1999/02/22-rdf-syntax-ns#"
   xmlns:svg="http://www.w3.org/2000/svg"
   xmlns="http://www.w3.org/2000/svg"
   xmlns:sodipodi="http://sodipodi.sourceforge.net/DTD/sodipodi-0.dtd"
   xmlns:inkscape="http://www.inkscape.org/namespaces/inkscape"
   version="1.0"
   width="500.000000pt"
   height="600.000000pt"
   viewBox="0 0 500.000000 600.000000"
   preserveAspectRatio="xMidYMid meet"
   id="svg3731"
   sodipodi:docname="The_Yellow_Sign.svg"
   inkscape:version="0.92.3 (2405546, 2018-03-11)">
  <defs
     id="defs3735" />
  <sodipodi:namedview
     pagecolor="#ffffff"
     bordercolor="#666666"
     borderopacity="1"
     objecttolerance="10"
     gridtolerance="10"
     guidetolerance="10"
     inkscape:pageopacity="0"
     inkscape:pageshadow="2"
     inkscape:window-width="1920"
     inkscape:window-height="1017"
     id="namedview3733"
     showgrid="false"
     inkscape:zoom="1.06"
     inkscape:cx="333.33333"
     inkscape:cy="400"
     inkscape:window-x="-8"
     inkscape:window-y="-8"
     inkscape:window-maximized="1"
     inkscape:current-layer="svg3731" />
  <metadata
     id="metadata3725">
Created by potrace 1.15, written by Peter Selinger 2001-2017
<rdf:RDF>
  <cc:Work
     rdf:about="">
    <dc:format>image/svg+xml</dc:format>
    <dc:type
       rdf:resource="http://purl.org/dc/dcmitype/StillImage" />
    <dc:title></dc:title>
  </cc:Work>
</rdf:RDF>
</metadata>
  <g
     transform="translate(0.000000,600.000000) scale(0.100000,-0.100000)"
     fill="#000000"
     stroke="none"
     id="g3729">
    <path
       d="M0 3000 l0 -3000 2500 0 2500 0 0 3000 0 3000 -2500 0 -2500 0 0 -3000z m2705 2299 c38 -12 102 -41 140 -64 39 -23 81 -46 95 -50 82 -26 173 -122 232 -245 39 -80 41 -91 42 -176 1 -54 -4 -97 -10 -105 -7 -8 -23 -55 -38 -106 -32 -112 -72 -183 -165 -290 -74 -84 -221 -203 -301 -243 -25 -12 -52 -29 -61 -36 -44 -39 -264 -93 -379 -94 -97 0 -269 38 -311 69 -19 14 -34 17 -60 12 -54 -11 -55 -8 40 -259 17 -46 29 -87 26 -92 -3 -4 4 -50 16 -100 28 -121 20 -190 -25 -201 -29 -8 -126 9 -126 22 0 3 -9 9 -20 12 -11 3 -24 17 -29 30 -6 14 -23 44 -39 66 -16 22 -34 60 -40 84 -6 24 -23 60 -36 80 -65 95 -104 364 -65 439 24 45 125 61 409 64 396 4 381 2 585 92 95 42 130 69 173 136 47 73 51 80 94 166 72 148 64 204 -49 323 -22 23 -125 90 -173 113 -30 14 -78 37 -106 50 -72 34 -165 65 -175 58 -5 -3 -38 4 -73 16 -72 24 -184 23 -316 -3 -41 -9 -93 -18 -115 -22 -107 -16 -391 -111 -458 -152 -21 -13 -42 -21 -46 -18 -5 2 -11 -2 -14 -10 -4 -8 -25 -24 -49 -36 -43 -21 -168 -135 -168 -153 0 -5 -12 -24 -26 -43 -59 -78 -99 -205 -95 -307 3 -70 19 -106 63 -139 57 -42 115 -58 197 -56 80 2 94 -6 61 -36 -18 -17 -36 -19 -125 -18 -113 1 -162 13 -276 68 -145 69 -187 104 -232 190 -27 52 -31 71 -31 140 -1 75 2 85 38 152 22 39 61 94 87 122 52 53 201 171 218 171 5 0 16 6 23 13 29 28 188 126 253 156 39 18 88 41 110 51 56 27 244 72 480 115 110 20 225 41 256 47 96 18 208 24 369 21 124 -2 168 -7 225 -24z m-340 -1858 c39 -10 89 -28 112 -40 64 -32 91 -101 59 -144 -14 -18 -16 -18 -53 2 -64 33 -174 61 -245 61 -50 0 -83 -7 -138 -29 -39 -16 -80 -37 -90 -46 -23 -21 -33 -5 -19 31 29 79 133 158 227 174 69 11 71 11 147 -9z m-4 -220 c70 -47 110 -131 85 -180 -18 -34 -113 -124 -153 -144 -55 -29 -143 -22 -194 14 -59 42 -65 143 -13 220 22 33 48 53 103 82 40 20 85 37 100 37 15 0 47 -13 72 -29z m-403 -28 c2 -14 -3 -23 -17 -28 -12 -3 -21 -9 -22 -13 -11 -69 7 -170 38 -217 15 -23 17 -49 3 -40 -5 3 -21 -2 -35 -11 -24 -16 -28 -16 -65 1 -126 57 -133 216 -15 305 49 37 108 39 113 3z m1196 -119 c88 -8 194 -23 235 -35 207 -58 593 -276 720 -408 149 -155 225 -316 230 -491 1 -52 4 -97 6 -100 11 -17 -20 -161 -49 -228 -18 -42 -36 -88 -39 -102 -4 -14 -22 -49 -42 -78 -19 -30 -35 -57 -35 -60 0 -4 -11 -19 -24 -33 -13 -14 -32 -41 -41 -60 -29 -55 -93 -136 -143 -182 -25 -23 -71 -66 -102 -95 -46 -44 -188 -142 -206 -142 -3 0 -20 -7 -37 -15 -18 -8 -81 -30 -140 -50 -90 -29 -122 -35 -195 -35 -113 0 -184 18 -259 63 -59 36 -133 107 -133 128 0 5 -12 21 -26 34 -38 35 -21 50 24 21 67 -44 140 -58 265 -53 175 8 234 20 317 62 41 20 92 51 114 69 72 57 191 180 253 261 33 44 68 87 78 95 22 18 77 128 105 210 29 83 42 360 18 360 -8 0 -63 29 -124 65 -60 36 -118 68 -129 71 -11 4 -36 19 -55 33 -19 15 -52 36 -74 46 -47 24 -158 132 -206 200 -79 111 -157 166 -324 226 l-81 29 -228 -12 -227 -11 -25 23 c-15 14 -25 35 -25 50 0 57 55 146 100 163 23 8 326 -3 504 -19z m-1059 -254 c75 -34 277 -28 300 9 3 6 14 11 24 11 14 0 18 -9 20 -49 1 -46 -1 -51 -43 -88 -32 -28 -64 -45 -109 -57 -60 -16 -66 -16 -108 0 -57 22 -83 46 -126 118 -29 47 -33 60 -22 67 18 11 13 12 64 -11z m-165 8 c-2 -39 -82 -251 -135 -357 -72 -145 -100 -172 -346 -326 -105 -66 -203 -143 -294 -232 -118 -116 -163 -176 -227 -306 -33 -68 -41 -92 -41 -142 -1 -110 35 -206 98 -264 20 -18 23 -26 14 -37 -13 -16 -45 -19 -54 -5 -3 5 -29 21 -58 34 -92 42 -163 163 -174 297 -12 142 93 415 227 591 19 26 51 73 70 105 33 55 270 304 289 304 5 0 29 16 53 36 38 32 83 65 137 99 95 60 137 84 201 113 113 50 124 55 140 57 8 1 29 9 45 18 26 14 55 22 55 15z m1107 -915 c41 -19 63 -62 63 -123 0 -60 -19 -87 -117 -167 -48 -40 -94 -82 -101 -93 -28 -45 -54 -133 -50 -171 4 -44 -10 -47 -30 -6 -7 15 -17 27 -21 27 -5 0 -21 34 -36 76 -23 64 -27 86 -22 142 12 144 109 290 215 322 42 13 61 11 99 -7z"
       id="path3727" />
  </g>
  <path
     style="fill:#ffffff;stroke-width:0.94339621"
     d="m 125.31447,644.32766 c -1.03774,-0.80376 -4.26586,-2.67546 -7.17361,-4.15934 -12.86113,-6.56326 -22.543376,-24.48478 -22.543376,-41.72706 0,-17.06093 10.963316,-47.26748 24.394246,-67.21195 20.45754,-30.37874 19.79822,-29.55091 39.68872,-49.83221 6.52324,-6.6514 13.12828,-12.76375 14.67788,-13.58299 1.54959,-0.81924 5.62471,-3.7577 9.05582,-6.52991 13.25409,-10.70882 38.42824,-25.08068 55.10786,-31.46095 3.11321,-1.19086 8.31864,-3.23236 11.56763,-4.53666 3.24899,-1.30431 6.12069,-2.15802 6.38158,-1.89713 1.28468,1.28468 -9.46337,29.92645 -17.45557,46.5162 -8.41384,17.46496 -14.08078,23.18694 -38.28962,38.66148 -21.41558,13.68907 -33.86182,23.45791 -48.63295,38.17116 -15.15326,15.09389 -20.8414,22.78193 -28.49169,38.50909 -4.63926,9.5372 -4.90733,10.49954 -5.2142,18.71839 -0.17793,4.76536 0.15426,10.96569 0.7382,13.77849 1.50159,7.23315 5.86811,15.96625 10.49027,20.9807 3.29059,3.56987 3.7559,4.5262 2.77647,5.70634 -1.50489,1.81329 -4.66241,1.76706 -7.07766,-0.10365 z"
     id="path3737"
     inkscape:connector-curvature="0"
     transform="scale(0.74999999)" />
  <path
     style="fill:#ffffff;stroke-width:0.94339621"
     d="m 247.95597,356.29439 c -3.24471,-0.78222 -10.84905,-5.36437 -10.84905,-6.53732 0,-0.43192 -1.77005,-3.50442 -3.93344,-6.82779 -2.16338,-3.32336 -5.34228,-9.60503 -7.06421,-13.95926 -1.72193,-4.35422 -4.18019,-9.70746 -5.46281,-11.89609 -5.60368,-9.56195 -9.98929,-28.99906 -9.8976,-43.86638 0.0683,-11.07514 1.26034,-14.11474 6.54674,-16.69371 6.57086,-3.20559 16.39689,-4.08072 56.13207,-4.99919 20.23585,-0.46775 39.51055,-1.31677 42.83266,-1.88672 7.14473,-1.22575 17.59642,-5.10066 31.16466,-11.5541 12.10753,-5.75869 17.01307,-10.49602 25.22959,-24.36446 10.42373,-17.59395 15.18101,-30.47843 14.04419,-38.03692 -1.26497,-8.4105 -9.53595,-18.86651 -21.08668,-26.6574 -13.0674,-8.81387 -40.3138,-21.447 -48.70301,-22.58176 -2.12232,-0.28707 -8.30584,-1.61247 -13.74114,-2.94532 -8.78508,-2.15428 -11.14199,-2.36457 -21.22642,-1.89391 -10.59206,0.49435 -32.9679,4.2113 -47.10639,7.82504 -16.10635,4.11672 -41.29432,13.01995 -50.10751,17.71157 -2.57465,1.37058 -5.42747,2.49197 -6.33961,2.49197 -0.91215,0 -1.65845,0.42731 -1.65845,0.94958 0,0.52227 -2.99294,2.86801 -6.65098,5.21276 -6.34581,4.06756 -22.5943,18.7045 -22.5943,20.35336 0,0.43117 -1.86642,3.66914 -4.1476,7.19548 -8.22711,12.71781 -12.53299,27.82449 -11.64085,40.84058 0.81628,11.90919 4.4198,16.84702 16.24569,22.26109 4.57789,2.09582 7.25119,2.61392 15.05454,2.9176 5.21852,0.2031 10.51407,0.58492 11.76788,0.84849 l 2.27967,0.47922 -2.39819,2.39819 c -2.07979,2.07979 -3.44705,2.46244 -10.29853,2.88225 -9.0829,0.55651 -21.86942,-0.80241 -28.68189,-3.04827 -7.80545,-2.57321 -27.01637,-12.20427 -32.22844,-16.15718 -6.097998,-4.62479 -9.853965,-9.30211 -13.631455,-16.97528 -2.705887,-5.49643 -2.946407,-6.77354 -3.053565,-16.21376 -0.114464,-10.08384 -0.05961,-10.35892 3.437067,-17.23725 1.954362,-3.84443 5.702525,-9.85508 8.32925,-13.357 5.894393,-7.85833 23.802663,-23.29035 32.456983,-27.96903 2.07547,-1.12204 6.53302,-3.97264 9.90566,-6.33467 19.29382,-13.51243 41.54429,-24.2111 60.38813,-29.03636 29.69167,-7.60302 84.55083,-17.435425 102.56696,-18.383077 21.68657,-1.140718 48.29017,0.12778 56.29234,2.6841 8.36675,2.672787 38.47672,18.084567 43.78974,22.413767 5.73083,4.66965 13.46664,15.29008 18.76757,25.76587 l 4.51602,8.92464 -0.0481,13.67924 -0.0481,13.67925 -4.71668,13.20754 c -5.40899,15.14611 -8.77509,21.82765 -15.68408,31.13208 -10.11532,13.62243 -31.38599,32.17356 -46.63896,40.67594 -3.54697,1.97718 -7.88867,4.56599 -9.64822,5.75294 -6.58125,4.43949 -29.20463,10.22081 -44.04717,11.25607 -13.70429,0.95588 -36.29069,-3.23534 -46.38044,-8.60653 -3.40832,-1.81438 -5.25785,-2.23883 -7.78067,-1.78553 -7.35477,1.32148 -7.28702,2.63704 1.37327,26.66883 3.33732,9.26085 6.30686,18.90799 6.59897,21.43809 0.29212,2.5301 1.42019,9.04041 2.50682,14.46734 2.29952,11.48446 2.09991,19.71762 -0.54904,22.64467 -1.34571,1.48701 -2.82764,1.90028 -6.54613,1.82558 -2.64363,-0.0531 -6.0802,-0.4036 -7.6368,-0.77886 z"
     id="path3739"
     inkscape:connector-curvature="0"
     transform="scale(0.74999999)" />
  <path
     style="fill:#ffffff;stroke-width:0.94339621"
     d="m 247.95597,356.27106 c -6.14287,-1.53153 -9.57082,-4.63481 -14.96116,-13.54415 -2.90486,-4.80125 -6.11349,-11.14754 -7.13027,-14.10288 -1.01678,-2.95534 -3.32321,-8.03635 -5.12539,-11.29114 -6.02217,-10.87624 -10.08468,-28.81962 -9.99029,-44.12534 0.0683,-11.07514 1.26034,-14.11474 6.54674,-16.69371 6.54703,-3.19397 16.32631,-4.0619 56.13207,-4.9818 43.14093,-0.99698 46.05593,-1.42171 64.82951,-9.44576 19.65234,-8.39963 23.75914,-11.57799 32.31687,-25.01081 5.81711,-9.13096 14.41744,-27.37325 15.60735,-33.10497 1.88306,-9.07063 -0.79059,-16.03091 -9.88802,-25.74137 -11.99836,-12.80688 -43.82207,-28.78318 -66.07325,-33.17042 -3.11321,-0.61383 -8.20755,-1.69713 -11.32076,-2.40734 -11.07448,-2.5264 -25.27285,-1.33799 -53.30189,4.4614 -20.15735,4.17069 -58.44492,17.34262 -67.56267,23.24334 -12.26218,7.93569 -30.55053,23.42376 -30.55053,25.87267 0,0.48625 -1.2957,2.76732 -2.87932,5.06904 -8.31028,12.07859 -12.60296,25.65732 -12.65254,40.02293 -0.0312,9.05459 0.1808,10.27041 2.46796,14.15095 5.43381,9.21933 16.77353,14.13374 32.6858,14.16538 9.01625,0.0179 10.47041,0.74771 7.34345,3.68534 -1.89987,1.78484 -3.66635,2.24455 -10.1516,2.64186 -9.049,0.55439 -21.84319,-0.81098 -28.63303,-3.05564 -7.64949,-2.52885 -25.52867,-11.38395 -31.63846,-15.66973 -6.370857,-4.4689 -11.008188,-10.25093 -14.71461,-18.34683 -2.175348,-4.75158 -2.512349,-6.76048 -2.588808,-15.43211 -0.0822,-9.3226 0.103507,-10.36724 2.862341,-16.10148 4.617459,-9.59738 11.984957,-19.21505 19.939567,-26.02949 9.84833,-8.43672 17.60906,-14.38579 21.90162,-16.78891 1.95791,-1.09611 7.11477,-4.37733 11.45968,-7.29161 28.84658,-19.34838 46.31379,-26.05344 90.447,-34.71951 57.41634,-11.27436 69.20115,-12.58043 102.35849,-11.344035 21.97122,0.819278 24.47843,1.522988 48.06611,13.490945 15.28163,7.75361 17.67028,9.30069 23.6184,15.29707 6.83275,6.88819 13.5616,17.25818 17.84324,27.49862 2.18268,5.22036 2.45339,7.12431 2.45339,17.25553 0,11.24572 -0.0597,11.55998 -4.78949,25.19898 -2.63422,7.59617 -5.99198,16.17552 -7.46167,19.06521 -9.85063,19.3681 -31.27083,40.09942 -57.7088,55.85286 -15.32624,9.13236 -32.15219,14.24194 -51.26646,15.56824 -13.67638,0.94896 -33.98797,-2.61139 -44.7339,-7.84127 -5.31818,-2.58826 -10.00775,-3.00428 -13.40012,-1.18874 -2.78314,1.4895 -2.11436,4.6776 5.33165,25.41614 3.39267,9.44923 6.40266,19.15073 6.68886,21.55888 0.28621,2.40815 1.38168,8.76327 2.43439,14.12251 2.24072,11.40723 2.00752,19.85498 -0.62851,22.76776 -1.34572,1.48701 -2.82764,1.90028 -6.54613,1.82558 -2.64364,-0.0531 -6.0802,-0.4141 -7.63681,-0.80219 z"
     id="path3741"
     inkscape:connector-curvature="0"
     transform="scale(0.74999999)" />
  <path
     style="fill:#ffffff;stroke-width:0.94339621"
     d="m 247.95597,356.27106 c -6.13828,-1.53039 -9.57132,-4.63557 -14.94144,-13.51454 -2.89401,-4.78495 -5.9263,-10.61029 -6.73842,-12.9452 -0.81213,-2.3349 -3.38103,-8.06604 -5.70868,-12.73585 -5.94897,-11.93505 -8.96987,-24.39974 -9.60278,-39.62264 -0.63301,-15.22538 0.3723,-18.48563 6.53494,-21.19287 6.61041,-2.90394 17.23994,-3.8308 54.51299,-4.75337 38.78063,-0.95986 45.45241,-1.58822 55.78801,-5.25417 11.75262,-4.16857 29.30118,-13.16729 33.28446,-17.06793 8.27699,-8.10528 22.84151,-34.7114 25.05583,-45.77143 3.08554,-15.41148 -9.86769,-30.26453 -39.1283,-44.86719 -13.52338,-6.7489 -25.47414,-11.31193 -32.59167,-12.4441 -3.39711,-0.54038 -8.27919,-1.63823 -10.84906,-2.43967 -6.77052,-2.11148 -19.43259,-2.75238 -29.20078,-1.47803 -23.97519,3.12778 -46.95377,8.68171 -69.33893,16.75922 -10.37585,3.74404 -23.84935,9.43257 -27.03669,11.41491 -10.66981,6.63603 -28.39958,21.84277 -30.81789,26.43235 -0.73872,1.40199 -3.31808,5.9453 -5.7319,10.09624 -9.54067,16.40663 -12.55314,36.99092 -7.07092,48.31568 3.89042,8.03653 14.97374,13.39578 29.14727,14.09395 4.92925,0.2428 9.98812,0.65361 11.24193,0.91292 l 2.27967,0.47146 -2.54071,2.53696 c -2.52779,2.52405 -2.60898,2.53657 -15.95891,2.46151 -16.32388,-0.0918 -21.26035,-1.27093 -37.21877,-8.89029 -19.4678,-9.29491 -26.161046,-15.13423 -32.049521,-27.96064 -2.225514,-4.84767 -2.543484,-6.74311 -2.588808,-15.43211 -0.04619,-8.85504 0.218845,-10.48295 2.498846,-15.34848 3.888088,-8.29718 11.767173,-19.12 18.136903,-24.91311 12.30501,-11.19107 38.27801,-28.90427 56.35369,-38.43237 25.10087,-13.23123 36.52177,-16.40117 102.19323,-28.364325 28.61892,-5.213417 45.93761,-6.492013 70.76566,-5.224455 9.33962,0.47682 19.31604,1.501943 22.16981,2.27805 2.85378,0.776108 13.45228,5.573435 23.55226,10.66073 15.51595,7.81529 19.26268,10.12736 24.16173,14.90999 6.7725,6.61156 13.68163,16.90881 18.0402,26.8868 2.93726,6.72421 3.09127,7.65111 3.10222,18.67062 0.0114,11.50787 -0.0245,11.69912 -4.77797,25.4064 -5.56167,16.03794 -8.2707,21.66801 -15.10621,31.39467 -14.45865,20.5741 -47.83754,45.89069 -69.82938,52.96287 -13.93958,4.48273 -29.68315,6.80612 -41.407,6.11071 -11.75102,-0.69702 -24.11612,-3.29929 -32.29191,-6.79593 -6.94307,-2.96943 -12.90954,-3.83597 -15.79166,-2.2935 -1.78297,0.9542 -1.97281,1.6072 -1.41945,4.88249 0.35133,2.07952 3.34269,11.34187 6.64745,20.583 3.30476,9.24113 6.2727,18.65155 6.59542,20.91205 0.32273,2.26051 1.44198,8.74755 2.48724,14.41564 2.20811,11.97385 1.98285,20.26346 -0.62906,23.14959 -1.34572,1.48701 -2.82764,1.90028 -6.54613,1.82558 -2.64364,-0.0531 -6.0802,-0.4141 -7.63681,-0.80219 z"
     id="path3743"
     inkscape:connector-curvature="0"
     transform="scale(0.74999999)" />
  <path
     style="fill:#ffffff;stroke-width:0.94339621"
     d="m 247.95597,356.48111 c -1.03773,-0.25839 -3.70901,-1.53361 -5.93618,-2.83381 -3.22298,-1.88154 -5.19644,-4.30407 -9.66982,-11.87023 -3.09122,-5.22845 -5.62041,-9.94555 -5.62041,-10.48248 0,-0.53692 -2.33394,-5.87217 -5.18654,-11.85613 -6.98223,-14.64679 -9.92779,-26.33772 -10.57837,-41.98563 -0.63301,-15.22538 0.3723,-18.48563 6.53494,-21.19287 6.5426,-2.87415 17.09269,-3.80754 54.04129,-4.78119 19.19811,-0.50588 38.24542,-1.36977 42.32733,-1.91974 8.92333,-1.20228 17.29954,-4.10295 31.54515,-10.92403 15.55115,-7.44622 20.67849,-12.78505 31.20033,-32.48735 13.17507,-24.67051 12.9346,-34.51406 -1.18533,-48.52057 -7.38981,-7.33044 -15.0146,-12.31424 -30.30257,-19.80666 -21.54224,-10.55755 -42.411,-16.07169 -60.37736,-15.95348 -24.02382,0.15806 -67.92643,10.97336 -96.22642,23.70514 -11.52432,5.18463 -10.09468,4.37634 -19.01712,10.75189 -20.64037,14.74863 -32.98457,33.14493 -36.71134,54.71012 -1.61958,9.37185 -1.28087,17.68665 0.93621,22.98197 1.54422,3.68826 8.17882,9.67245 13.17302,11.88162 4.88227,2.15966 14.23928,3.70856 22.45978,3.71784 3.47174,0.004 6.53649,0.36994 6.81055,0.81339 0.27406,0.44344 -0.58594,1.82316 -1.91111,3.06603 -2.31521,2.17143 -2.93187,2.25735 -15.77281,2.19785 -17.0403,-0.079 -21.63897,-1.26841 -39.91765,-10.32474 -17.20277,-8.52326 -22.719059,-13.31845 -28.291218,-24.59295 -3.505156,-7.09219 -3.593052,-7.52474 -3.606643,-17.74865 -0.01372,-10.31821 0.04045,-10.58078 3.524058,-17.08305 9.651135,-18.01417 20.049963,-27.66867 53.041253,-49.24464 14.94598,-9.77452 39.54655,-22.01281 50.64794,-25.19634 12.87529,-3.69223 35.60333,-8.54441 66.42175,-14.180298 32.64674,-5.970238 50.25589,-7.561527 73.02465,-6.599029 23.02762,0.97344 25.83122,1.721595 48.11321,12.839217 18.02003,8.99112 19.79022,10.10818 25.9434,16.37129 6.89064,7.01376 14.06753,17.98195 17.95787,27.44442 1.98083,4.81794 2.28331,7.0696 2.30275,17.14166 0.0223,11.5157 -0.0105,11.69024 -4.7732,25.4717 -5.94477,17.20182 -10.44009,25.77702 -19.17982,36.58705 -15.77389,19.51049 -45.65096,41.2152 -65.56883,47.63359 -14.06034,4.53084 -29.78509,6.8763 -41.58783,6.20312 -11.78858,-0.67238 -23.63862,-3.20263 -33.50914,-7.15498 -8.03012,-3.21541 -12.76818,-3.64052 -15.0577,-1.351 -1.98516,1.98515 -1.66893,3.35059 5.68232,24.53641 4.55638,13.13115 6.5257,20.56854 8.4752,32.00769 4.04783,23.75156 2.80804,28.81068 -7.01048,28.60712 -2.90307,-0.0602 -6.12737,-0.32086 -7.16511,-0.57927 z"
     id="path3745"
     inkscape:connector-curvature="0"
     transform="scale(0.74999999)" />
  <path
     style="fill:#ffffff;stroke-width:0.94339621"
     d="m 247.26167,356.23046 c -6.11843,-1.84229 -9.24815,-4.87421 -14.90105,-14.43539 -3.09708,-5.23834 -5.63106,-9.9086 -5.63106,-10.37834 0,-0.46975 -2.34389,-5.84421 -5.20863,-11.94326 -7.02676,-14.95993 -9.90805,-26.42929 -10.55628,-42.02064 -0.63301,-15.22538 0.3723,-18.48563 6.53494,-21.19287 6.44236,-2.83011 16.77013,-3.77025 52.07157,-4.74007 47.74749,-1.31176 49.81086,-1.59686 67.98096,-9.3934 20.52017,-8.80491 25.67702,-13.09323 35.22328,-29.29084 11.97764,-20.32306 15.53326,-32.79555 11.99239,-42.0672 -4.82582,-12.63622 -21.95688,-25.60207 -49.54766,-37.50074 -10.00902,-4.31644 -14.31299,-5.62441 -29.71699,-9.03097 -12.50939,-2.76641 -17.88671,-3.1275 -29.32328,-1.96905 -28.33897,2.87056 -63.31753,12.36933 -89.44562,24.28983 -16.83175,7.6792 -32.282,20.18956 -40.73132,32.98092 -9.69684,14.67998 -13.8499,27.15725 -13.90724,41.78231 -0.0287,7.32559 0.32935,9.66771 1.96077,12.82517 5.2665,10.19284 17.31613,15.39897 35.77781,15.45803 3.2123,0.0103 6.06479,0.38151 6.33885,0.82496 0.27406,0.44344 -0.58594,1.82316 -1.91111,3.06603 -2.31521,2.17143 -2.93187,2.25735 -15.77281,2.19785 -17.06527,-0.0791 -21.63195,-1.2648 -40.08356,-10.40747 -17.26441,-8.55442 -22.494952,-13.11807 -28.150823,-24.56164 -3.53709,-7.15662 -3.619587,-7.56118 -3.619587,-17.75003 v -10.42648 l 4.008025,-7.38115 c 4.736953,-8.72353 10.658915,-16.63234 16.384845,-21.88202 17.48919,-16.03453 54.9764,-39.53963 77.24864,-48.43617 8.74727,-3.49405 28.02869,-8.36398 50.78696,-12.82731 52.26563,-10.250297 71.17229,-12.439928 97.79795,-11.326244 23.36081,0.977124 26.22427,1.73082 48.52847,12.773254 17.07784,8.45495 19.94388,10.21058 25.06029,15.35095 6.93072,6.96317 12.5999,15.15028 17.28602,24.96351 3.36348,7.04348 3.47379,7.61665 3.77074,19.59228 l 0.30591,12.33653 -4.86565,14.07857 c -5.97126,17.27759 -10.38764,25.75455 -19.04685,36.55918 -7.07992,8.83404 -20.65917,21.49471 -30.86963,28.78142 -25.28131,18.04203 -45.66686,25.1149 -72.24478,25.06569 -14.87299,-0.0275 -25.27338,-1.93785 -37.75045,-6.93391 -11.42536,-4.57493 -17.10898,-3.4817 -15.84807,3.04833 0.32173,1.66625 3.252,10.73315 6.51168,20.14867 6.59869,19.0601 11.34729,42.36906 10.56165,51.84287 -0.59025,7.11755 -2.43399,8.89013 -9.13989,8.78711 -2.90307,-0.0446 -6.4398,-0.43082 -7.85941,-0.85827 z"
     id="path3747"
     inkscape:connector-curvature="0"
     transform="scale(0.74999999)" />
  <path
     style="fill:#ffffff;stroke-width:0.94339621"
     d="m 265.40881,366.50465 c 0,-6.41714 10.04713,-17.65725 20.05075,-22.43154 3.29904,-1.57448 8.97578,-3.35443 12.61497,-3.95543 5.83733,-0.96401 7.49793,-0.86817 14.09813,0.81368 12.8417,3.2723 18.48383,5.78953 22.68805,10.12223 4.3663,4.49976 5.39638,8.27475 3.49308,12.80136 -1.43878,3.42187 -2.12972,3.39521 -11.21055,-0.4325 -8.98791,-3.78855 -16.18285,-5.43727 -26.15461,-5.99333 -8.32196,-0.46406 -10.01927,-0.25852 -17.22714,2.08617 -4.39761,1.43052 -10.32599,4.0042 -13.17417,5.71929 -4.71035,2.83642 -5.17851,2.95124 -5.17851,1.27007 z"
     id="path3749"
     inkscape:connector-curvature="0"
     transform="scale(0.74999999)" />
  <path
     style="fill:#ffffff;stroke-width:0.94339621"
     d="m 286.61545,414.3947 c -5.79215,-1.8901 -8.66292,-4.16486 -10.78296,-8.54428 -3.68189,-7.60577 -1.71653,-18.08727 4.77412,-25.46104 4.59097,-5.21562 19.1427,-12.84783 24.46834,-12.83336 6.82565,0.0186 16.77846,8.07159 20.25289,16.38708 1.91365,4.58002 1.7599,7.80181 -0.55072,11.54049 -2.61567,4.23223 -15.37186,15.89657 -19.63387,17.95331 -4.32596,2.08761 -13.59684,2.56687 -18.5278,0.9578 z"
     id="path3751"
     inkscape:connector-curvature="0"
     transform="scale(0.74999999)" />
  <path
     style="fill:#ffffff;stroke-width:0.94339621"
     d="m 291.8239,447.10723 c -7.4583,-2.59795 -11.77152,-6.47487 -17.60208,-15.82159 -5.47059,-8.76965 -4.05245,-10.89329 4.70585,-7.04692 9.05043,3.97467 36.84132,3.55342 40.29733,-0.61082 1.50155,-1.80925 4.32919,-1.73723 5.04514,0.1285 0.31494,0.82074 0.57263,3.32302 0.57263,5.56061 0,3.1465 -0.58786,4.68785 -2.59434,6.80232 -8.68338,9.15071 -21.94696,13.94088 -30.42453,10.9879 z"
     id="path3753"
     inkscape:connector-curvature="0"
     transform="scale(0.74999999)" />
  <path
     style="fill:#ffffff;stroke-width:0.94339621"
     d="m 247.75757,414.63618 c -14.98534,-7.41765 -16.58091,-25.83847 -3.279,-37.85595 6.0023,-5.42272 13.38931,-6.9754 15.64521,-3.28848 0.86462,1.41309 0.5219,2.12812 -2.0348,4.24529 -2.85255,2.36215 -3.07292,2.95469 -3.05209,8.20636 0.0279,7.02735 1.94859,15.37674 5.10003,22.16981 l 2.40712,5.18868 -2.9003,0.60627 c -1.59517,0.33345 -3.37041,1.07637 -3.94498,1.65094 -1.51912,1.51912 -3.46446,1.29303 -7.94119,-0.92292 z"
     id="path3755"
     inkscape:connector-curvature="0"
     transform="scale(0.74999999)" />
  <path
     style="fill:#ffffff;stroke-width:0.94339621"
     d="m 421.41797,669.91295 c -7.09681,-1.54349 -16.14504,-5.94147 -22.82714,-11.09537 -5.20104,-4.01155 -11.48391,-10.74991 -11.48391,-12.31645 0,-0.4923 -1.51885,-2.57628 -3.37523,-4.63106 -1.85637,-2.05479 -3.18794,-3.92325 -2.95904,-4.15215 0.2289,-0.2289 3.87708,1.25748 8.10708,3.30305 10.49088,5.07328 17.83847,6.19048 35.49134,5.3965 23.60477,-1.06168 32.6335,-3.42078 47.94294,-12.52695 9.81997,-5.84099 29.25915,-24.95484 43.96597,-43.23014 18.59316,-23.10464 23.82376,-36.80712 25.22812,-66.0896 0.76711,-15.99503 0.22931,-18.9044 -3.80618,-20.59053 -1.70004,-0.71033 -9.00344,-4.67087 -16.22978,-8.80122 -7.22634,-4.13034 -13.8804,-7.77808 -14.7868,-8.10609 -0.90639,-0.328 -4.72715,-2.67036 -8.49056,-5.20524 -3.76342,-2.53489 -8.27847,-5.34811 -10.03346,-6.25161 -4.20946,-2.1671 -18.89277,-16.37937 -24.90563,-24.10666 -13.77175,-17.69844 -22.79063,-23.99571 -46.86626,-32.7235 l -8.92504,-3.23546 -30.09315,1.55518 -30.09316,1.55519 -3.19879,-3.10039 c -2.61228,-2.53193 -3.19499,-3.80159 -3.17807,-6.92476 0.0383,-7.07794 5.99609,-17.05815 11.83774,-19.83019 2.95916,-1.40422 5.65283,-1.45489 28.01904,-0.5271 27.26775,1.13112 49.64687,2.995 62.12362,5.17407 11.70671,2.04458 22.56921,6.08859 41.86681,15.58662 47.54681,23.40194 70.81327,43.01276 84.45017,71.18129 5.34574,11.04224 7.15,17.49513 8.49051,30.36621 1.62817,15.6331 1.38295,24.49904 -0.92313,33.37567 -4.78642,18.42411 -14.46246,39.16062 -24.86151,53.28019 -1.6528,2.24414 -4.60781,6.64515 -6.56667,9.78003 -5.4223,8.67758 -11.79382,15.85819 -23.96082,27.00349 -16.45725,15.0753 -26.84394,21.88928 -42.34417,27.77903 -20.23825,7.6901 -28.20095,9.52393 -40.9825,9.43838 -5.96698,-0.0399 -13.45153,-0.63863 -16.63234,-1.33043 z"
     id="path3757"
     inkscape:connector-curvature="0"
     transform="scale(0.74999999)" />
  <path
     style="fill:#ffffff;stroke-width:0.94339621"
     d="m 374.25104,619.75166 c -0.92723,-1.4719 -2.5948,-3.7996 -3.70571,-5.17267 -1.11091,-1.37306 -3.20013,-6.12484 -4.6427,-10.55949 -2.26095,-6.95045 -2.56175,-9.14436 -2.17997,-15.89975 1.38171,-24.44841 22.21208,-48.99029 37.40175,-44.0659 8.43497,2.73455 12.00254,8.67044 11.27298,18.75648 -0.51842,7.1671 -1.3455,8.28074 -15.48146,20.84539 -6.17326,5.48707 -12.15219,11.34689 -13.28652,13.02184 -2.86164,4.22549 -6.04925,14.2377 -6.33558,19.89989 -0.29934,5.91948 -0.91126,6.55783 -3.04279,3.17421 z"
     id="path3759"
     inkscape:connector-curvature="0"
     transform="scale(0.74999999)" />
  <path
     style="fill:none;stroke-width:0.94339621"
     d="m 126.39577,645.14151 c -0.24484,-0.38915 -3.28766,-2.1934 -6.76183,-4.00943 -14.31656,-7.48364 -24.036456,-24.747 -24.036456,-42.69082 0,-12.51486 5.425886,-31.24946 14.383336,-49.66302 5.70924,-11.73632 24.27557,-39.63006 33.54413,-50.39612 23.52695,-27.32816 56.48827,-51.99601 86.97819,-65.09343 16.85074,-7.2385 25.3992,-10.46811 26.03229,-9.83502 1.6968,1.6968 -14.91856,43.16903 -22.21715,55.45438 -6.01614,10.12665 -12.32142,15.66425 -34.71562,30.48887 -25.18926,16.67492 -33.11183,22.9566 -48.8594,38.73984 -13.51792,13.54855 -20.20506,22.74425 -27.47965,37.78815 -4.26189,8.81363 -4.5736,9.96806 -4.87642,18.06033 -0.5355,14.3097 3.0328,25.44229 11.04582,34.46141 2.14518,2.41453 3.90032,4.81014 3.90032,5.3236 0,1.74683 -5.96011,2.92489 -6.93756,1.37126 z"
     id="path3771"
     inkscape:connector-curvature="0"
     transform="scale(0.74999999)" />
  <path
     style="fill:none;stroke-width:0.94339621"
     d="M 0.31446541,400.09434 V 0.56603774 H 333.33333 666.3522 V 400.09434 799.62264 H 333.33333 0.31446541 Z M 457.09082,669.9596 c 10.58882,-2.7512 25.0133,-7.88293 33.37551,-11.87385 15.24562,-7.27606 45.50086,-34.50962 54.99319,-49.50084 2.62835,-4.15095 6.17108,-9.45755 7.87274,-11.79246 14.29984,-19.62132 26.41029,-50.81494 26.32825,-67.81527 -0.0475,-9.84659 -1.76806,-26.82102 -3.32745,-32.82769 -5.84309,-22.50733 -21.8051,-44.39594 -44.02923,-60.37704 -19.8315,-14.26058 -55.33219,-33.05139 -74.07,-39.20586 -15.75381,-5.17436 -35.35663,-7.48276 -77.81698,-9.16361 -15.23387,-0.60306 -24.35791,-0.59853 -26.57333,0.0132 -6.32759,1.74713 -13.8788,13.3851 -13.8972,21.41846 -0.008,3.23849 0.59429,4.68181 3.08467,7.3993 l 3.09389,3.37601 30.63253,-1.57357 30.63253,-1.57359 9.23525,3.3451 c 12.44482,4.50764 23.87041,10.27764 30.22037,15.26151 2.88524,2.26451 9.31453,9.19909 14.28731,15.41017 9.83311,12.28167 17.8826,20.13834 25.97405,25.35189 2.85377,1.83877 7.09648,4.64854 9.42824,6.24393 2.33177,1.59539 7.85064,4.83905 12.26415,7.20814 24.99829,13.41854 31.17306,17.22663 31.76645,19.59087 0.93646,3.73117 -0.41321,28.15646 -2.02249,36.60155 -2.01432,10.57062 -8.28271,25.50244 -13.87106,33.04198 -13.57347,18.31276 -36.4158,42.95275 -47.13964,50.84948 -6.87127,5.05982 -19.54679,11.29848 -26.70682,13.14461 -12.77371,3.29356 -40.05928,4.32763 -50.32575,1.90724 -3.27059,-0.77106 -8.92475,-2.94317 -12.56481,-4.8269 -8.15662,-4.22106 -9.95986,-3.36539 -5.11881,2.42897 1.84093,2.20345 3.34714,4.42215 3.34714,4.93044 0,1.66299 10.5662,12.04674 15.7798,15.50733 10.75515,7.13886 19.62709,9.51228 36.23956,9.6948 7.85897,0.0863 11.96381,-0.39003 18.90794,-2.19427 z M 133.62646,644.79378 c 0.75078,-1.19928 -0.0178,-2.71763 -3.58179,-7.07547 -8.40462,-10.27682 -11.25147,-19.27814 -10.71409,-33.87637 0.31627,-8.59161 0.44858,-9.03567 5.91656,-19.85686 7.37767,-14.60051 14.39808,-23.94183 28.30639,-37.66433 13.65392,-13.47149 25.1237,-22.41989 45.34458,-35.37654 27.28233,-17.48133 31.48799,-21.64088 40.53957,-40.09515 9.2343,-18.8268 19.62913,-46.75081 18.00701,-48.37292 -0.34714,-0.34714 -2.62411,0.13923 -5.05994,1.08081 -2.43582,0.9416 -6.55142,2.47175 -9.14576,3.40035 -17.69202,6.33257 -41.27559,19.1593 -56.51728,30.73886 -4.05823,3.08315 -8.9417,6.66705 -10.85217,7.96422 -11.37385,7.72258 -34.34553,31.87054 -43.97466,46.22641 -3.30627,4.92925 -8.59775,12.7701 -11.75884,17.42412 -10.43967,15.3701 -20.537075,38.74534 -24.019367,55.60417 -1.964934,9.51286 -1.8415,17.64118 0.401038,26.40944 3.662069,14.31854 11.255949,24.68093 22.396789,30.56202 3.22531,1.70258 6.13031,3.52621 6.45557,4.05249 0.90031,1.45672 7.17211,0.58677 8.25639,-1.14525 z M 377.9994,617.72329 c 0.59879,-6.44273 2.86078,-14.29273 5.70127,-19.78563 0.83494,-1.61458 6.63805,-7.30871 12.8958,-12.65361 14.0192,-11.97413 16.92554,-15.99536 16.92554,-23.41822 0,-9.95288 -3.49595,-15.72387 -11.09341,-18.31258 -17.52299,-5.97068 -39.81761,20.66568 -39.82342,47.57883 -9.4e-4,6.38526 3.84017,19.54879 6.95779,23.84167 0.83948,1.15595 2.58845,3.6937 3.8866,5.63946 1.29814,1.94575 2.7185,3.53773 3.15636,3.53773 0.43785,0 1.0649,-2.89244 1.39347,-6.42765 z M 307.60982,446.70783 c 5.80953,-1.98822 12.25191,-6.22691 15.70926,-10.33573 1.80586,-2.14614 2.46363,-3.98716 2.45421,-6.86902 -0.0212,-6.49223 -0.80452,-8.18233 -3.79213,-8.18233 -1.45285,0 -2.78815,0.43983 -2.96733,0.97738 -0.74944,2.24831 -8.06646,3.65758 -19.20132,3.6982 -10.98431,0.0401 -16.51757,-0.85251 -23.8145,-3.84157 -3.63354,-1.48842 -6.52791,-0.24651 -6.0432,2.59301 0.52921,3.10025 9.01696,15.6407 12.46391,18.41517 1.83187,1.47448 5.65262,3.51517 8.49057,4.53485 5.61233,2.01654 8.39808,1.85141 16.70053,-0.98996 z m -51.10774,-30.54575 c 1.00719,-0.7618 2.83462,-1.39859 4.06097,-1.4151 1.91524,-0.0258 2.162,-0.39591 1.74963,-2.62434 -0.26404,-1.42689 -1.62281,-5.29746 -3.01948,-8.60127 -1.89536,-4.48346 -2.67191,-8.22824 -3.06193,-14.76545 l -0.52254,-8.75853 2.96324,-1.53236 c 4.8474,-2.50668 3.06754,-8.08767 -2.57928,-8.08767 -3.63788,0 -11.88752,4.32865 -14.76344,7.74649 -10.91437,12.971 -8.45494,30.0778 5.31046,36.93739 5.72449,2.85263 7.31201,3.02984 9.86237,1.10084 z m 45.18587,-0.60494 c 4.86184,-1.34979 8.97243,-4.20356 16.40312,-11.38782 9.92387,-9.59476 11.31215,-13.38085 7.76823,-21.18537 -3.87499,-8.53357 -14.01715,-16.38018 -21.1723,-16.38018 -4.18393,0 -19.47035,7.61354 -23.62192,11.76512 -9.15893,9.15892 -10.61483,25.34599 -2.9291,32.56636 4.92578,4.62752 15.82652,6.76671 23.55197,4.62189 z m -25.76441,-51.91503 c 2.92933,-1.42381 7.79553,-3.30665 10.81377,-4.18407 10.71997,-3.11638 31.18937,-0.17794 43.9641,6.31118 1.92508,0.97787 4.21319,1.77795 5.08468,1.77795 4.57442,0 5.67406,-9.58479 1.76041,-15.34425 -3.39506,-4.99629 -14.46656,-10.0921 -28.05636,-12.91334 -6.77066,-1.40558 -16.15603,0.058 -24.12444,3.76206 -11.21509,5.21324 -22.75281,19.25061 -20.54709,24.99861 0.5659,1.47472 0.79398,1.46647 3.19415,-0.11563 1.42159,-0.93706 4.98145,-2.86869 7.91078,-4.29251 z m -13.37385,-7.85661 c 3.34524,-3.56083 3.46441,-9.56932 0.52841,-26.63992 -1.95105,-11.34385 -4.00022,-19.06599 -8.58534,-32.35313 -3.31244,-9.59905 -6.29183,-18.62579 -6.62089,-20.05942 -1.31482,-5.72837 4.32896,-7.02466 13.59821,-3.12329 14.31293,6.02423 33.99057,9.01763 48.5148,7.38017 11.7431,-1.32393 30.09608,-5.85941 36.81305,-9.09744 28.12282,-13.55707 57.12119,-39.20438 68.29032,-60.39867 1.93687,-3.67537 5.64528,-12.62588 8.24091,-19.89003 l 4.71934,-13.20754 0.0481,-13.67925 0.0481,-13.67924 -3.50156,-7.36589 c -5.0709,-10.66699 -11.22485,-19.46856 -18.02653,-25.782 -4.65753,-4.32322 -9.65402,-7.41407 -22.87592,-14.15117 -25.38484,-12.934601 -25.04601,-12.853867 -55.95126,-13.331859 -15.94275,-0.246577 -29.29661,0.0098 -34.89308,0.669784 -19.0977,2.252315 -81.817,14.599045 -98.71399,19.432525 -11.67168,3.33876 -36.24457,15.5657 -50.63749,25.19613 -6.57703,4.40076 -12.53729,8.22357 -13.24501,8.49516 -2.5363,0.97326 -16.70246,12.13407 -23.72079,18.68842 -7.168795,6.69486 -13.326408,14.99942 -17.945461,24.20244 -2.247359,4.47764 -2.470117,5.92634 -2.470117,16.06435 0,10.80572 0.100491,11.35257 3.321114,18.07288 5.200678,10.852 11.513544,16.37671 27.973044,24.48062 16.74986,8.24687 20.33896,9.41877 32.81065,10.71327 13.2656,1.3769 22.15529,0.42214 25.29403,-2.71661 3.54257,-3.54256 1.66929,-4.46767 -10.43582,-5.15366 -13.2807,-0.75261 -19.83829,-3.05427 -26.16497,-9.1837 -5.74882,-5.56958 -6.99405,-9.82152 -6.2541,-21.35526 1.51978,-23.68918 15.43367,-46.12539 38.15192,-61.52014 10.59926,-7.18247 21.19837,-12.17971 38.53451,-18.16815 40.46602,-13.97822 76.11782,-18.96087 96.05107,-13.42398 4.11895,1.14413 8.20981,2.08023 9.09079,2.08023 7.06088,0 40.65683,15.59987 52.4635,24.36079 7.89305,5.85689 14.65636,13.35007 16.94104,18.76929 1.80882,4.29049 1.58732,13.22866 -0.47635,19.22223 -4.54481,13.19961 -17.01448,34.02593 -23.9769,40.04521 -4.36296,3.77195 -23.28091,13.337 -32.34746,16.35511 -9.91727,3.30131 -16.93993,3.93556 -53.42889,4.82546 -47.75268,1.1646 -57.511,2.59031 -61.72245,9.01779 -5.15367,7.86549 -0.83083,42.1493 7.13102,56.55507 1.43385,2.59434 3.77304,7.68867 5.19822,11.32075 1.42517,3.63208 4.93008,10.55392 7.78867,15.38189 7.05051,11.90779 11.74628,14.94552 23.46839,15.18192 3.94328,0.0795 5.17432,-0.31424 6.97514,-2.23114 z"
     id="path3773"
     inkscape:connector-curvature="0"
     transform="scale(0.74999999)" />
  <path
     style="fill:none;stroke-width:0.94339621"
     d="M 0.31446541,400.09434 V 0.56603774 H 333.33333 666.3522 V 400.09434 799.62264 H 333.33333 0.31446541 Z M 457.09082,669.9596 c 10.58882,-2.7512 25.0133,-7.88293 33.37551,-11.87385 15.24562,-7.27606 45.50086,-34.50962 54.99319,-49.50084 2.62835,-4.15095 6.17108,-9.45755 7.87274,-11.79246 14.29984,-19.62132 26.41029,-50.81494 26.32825,-67.81527 -0.0475,-9.84659 -1.76806,-26.82102 -3.32745,-32.82769 -5.84309,-22.50733 -21.8051,-44.39594 -44.02923,-60.37704 -19.8315,-14.26058 -55.33219,-33.05139 -74.07,-39.20586 -15.75381,-5.17436 -35.35663,-7.48276 -77.81698,-9.16361 -15.23387,-0.60306 -24.35791,-0.59853 -26.57333,0.0132 -6.32759,1.74713 -13.8788,13.3851 -13.8972,21.41846 -0.008,3.23849 0.59429,4.68181 3.08467,7.3993 l 3.09389,3.37601 30.63253,-1.57357 30.63253,-1.57359 9.23525,3.3451 c 12.44482,4.50764 23.87041,10.27764 30.22037,15.26151 2.88524,2.26451 9.31453,9.19909 14.28731,15.41017 9.83311,12.28167 17.8826,20.13834 25.97405,25.35189 2.85377,1.83877 7.09648,4.64854 9.42824,6.24393 2.33177,1.59539 7.85064,4.83905 12.26415,7.20814 24.99829,13.41854 31.17306,17.22663 31.76645,19.59087 0.93646,3.73117 -0.41321,28.15646 -2.02249,36.60155 -2.01432,10.57062 -8.28271,25.50244 -13.87106,33.04198 -13.57347,18.31276 -36.4158,42.95275 -47.13964,50.84948 -6.87127,5.05982 -19.54679,11.29848 -26.70682,13.14461 -12.77371,3.29356 -40.05928,4.32763 -50.32575,1.90724 -3.27059,-0.77106 -8.92475,-2.94317 -12.56481,-4.8269 -8.15662,-4.22106 -9.95986,-3.36539 -5.11881,2.42897 1.84093,2.20345 3.34714,4.42215 3.34714,4.93044 0,1.66299 10.5662,12.04674 15.7798,15.50733 10.75515,7.13886 19.62709,9.51228 36.23956,9.6948 7.85897,0.0863 11.96381,-0.39003 18.90794,-2.19427 z M 133.62646,644.79378 c 0.75078,-1.19928 -0.0178,-2.71763 -3.58179,-7.07547 -8.40462,-10.27682 -11.25147,-19.27814 -10.71409,-33.87637 0.31627,-8.59161 0.44858,-9.03567 5.91656,-19.85686 7.37767,-14.60051 14.39808,-23.94183 28.30639,-37.66433 13.65392,-13.47149 25.1237,-22.41989 45.34458,-35.37654 27.28233,-17.48133 31.48799,-21.64088 40.53957,-40.09515 9.2343,-18.8268 19.62913,-46.75081 18.00701,-48.37292 -0.34714,-0.34714 -2.62411,0.13923 -5.05994,1.08081 -2.43582,0.9416 -6.55142,2.47175 -9.14576,3.40035 -17.69202,6.33257 -41.27559,19.1593 -56.51728,30.73886 -4.05823,3.08315 -8.9417,6.66705 -10.85217,7.96422 -11.37385,7.72258 -34.34553,31.87054 -43.97466,46.22641 -3.30627,4.92925 -8.59775,12.7701 -11.75884,17.42412 -10.43967,15.3701 -20.537075,38.74534 -24.019367,55.60417 -1.964934,9.51286 -1.8415,17.64118 0.401038,26.40944 3.662069,14.31854 11.255949,24.68093 22.396789,30.56202 3.22531,1.70258 6.13031,3.52621 6.45557,4.05249 0.90031,1.45672 7.17211,0.58677 8.25639,-1.14525 z M 377.9994,617.72329 c 0.59879,-6.44273 2.86078,-14.29273 5.70127,-19.78563 0.83494,-1.61458 6.63805,-7.30871 12.8958,-12.65361 14.0192,-11.97413 16.92554,-15.99536 16.92554,-23.41822 0,-9.95288 -3.49595,-15.72387 -11.09341,-18.31258 -17.52299,-5.97068 -39.81761,20.66568 -39.82342,47.57883 -9.4e-4,6.38526 3.84017,19.54879 6.95779,23.84167 0.83948,1.15595 2.58845,3.6937 3.8866,5.63946 1.29814,1.94575 2.7185,3.53773 3.15636,3.53773 0.43785,0 1.0649,-2.89244 1.39347,-6.42765 z M 307.60982,446.70783 c 5.80953,-1.98822 12.25191,-6.22691 15.70926,-10.33573 1.80586,-2.14614 2.46363,-3.98716 2.45421,-6.86902 -0.0212,-6.49223 -0.80452,-8.18233 -3.79213,-8.18233 -1.45285,0 -2.78815,0.43983 -2.96733,0.97738 -0.74944,2.24831 -8.06646,3.65758 -19.20132,3.6982 -10.98431,0.0401 -16.51757,-0.85251 -23.8145,-3.84157 -3.63354,-1.48842 -6.52791,-0.24651 -6.0432,2.59301 0.52921,3.10025 9.01696,15.6407 12.46391,18.41517 1.83187,1.47448 5.65262,3.51517 8.49057,4.53485 5.61233,2.01654 8.39808,1.85141 16.70053,-0.98996 z m -51.10774,-30.54575 c 1.00719,-0.7618 2.83462,-1.39859 4.06097,-1.4151 1.91524,-0.0258 2.162,-0.39591 1.74963,-2.62434 -0.26404,-1.42689 -1.62281,-5.29746 -3.01948,-8.60127 -1.89536,-4.48346 -2.67191,-8.22824 -3.06193,-14.76545 l -0.52254,-8.75853 2.96324,-1.53236 c 4.8474,-2.50668 3.06754,-8.08767 -2.57928,-8.08767 -3.63788,0 -11.88752,4.32865 -14.76344,7.74649 -10.91437,12.971 -8.45494,30.0778 5.31046,36.93739 5.72449,2.85263 7.31201,3.02984 9.86237,1.10084 z m 45.18587,-0.60494 c 4.86184,-1.34979 8.97243,-4.20356 16.40312,-11.38782 9.92387,-9.59476 11.31215,-13.38085 7.76823,-21.18537 -3.87499,-8.53357 -14.01715,-16.38018 -21.1723,-16.38018 -4.18393,0 -19.47035,7.61354 -23.62192,11.76512 -9.15893,9.15892 -10.61483,25.34599 -2.9291,32.56636 4.92578,4.62752 15.82652,6.76671 23.55197,4.62189 z m -25.76441,-51.91503 c 2.92933,-1.42381 7.79553,-3.30665 10.81377,-4.18407 10.71997,-3.11638 31.18937,-0.17794 43.9641,6.31118 1.92508,0.97787 4.21319,1.77795 5.08468,1.77795 4.57442,0 5.67406,-9.58479 1.76041,-15.34425 -3.39506,-4.99629 -14.46656,-10.0921 -28.05636,-12.91334 -6.77066,-1.40558 -16.15603,0.058 -24.12444,3.76206 -11.21509,5.21324 -22.75281,19.25061 -20.54709,24.99861 0.5659,1.47472 0.79398,1.46647 3.19415,-0.11563 1.42159,-0.93706 4.98145,-2.86869 7.91078,-4.29251 z m -13.37385,-7.85661 c 3.34524,-3.56083 3.46441,-9.56932 0.52841,-26.63992 -1.95105,-11.34385 -4.00022,-19.06599 -8.58534,-32.35313 -3.31244,-9.59905 -6.29183,-18.62579 -6.62089,-20.05942 -1.31482,-5.72837 4.32896,-7.02466 13.59821,-3.12329 14.31293,6.02423 33.99057,9.01763 48.5148,7.38017 11.7431,-1.32393 30.09608,-5.85941 36.81305,-9.09744 28.12282,-13.55707 57.12119,-39.20438 68.29032,-60.39867 1.93687,-3.67537 5.64528,-12.62588 8.24091,-19.89003 l 4.71934,-13.20754 0.0481,-13.67925 0.0481,-13.67924 -3.50156,-7.36589 c -5.0709,-10.66699 -11.22485,-19.46856 -18.02653,-25.782 -4.65753,-4.32322 -9.65402,-7.41407 -22.87592,-14.15117 -25.38484,-12.934601 -25.04601,-12.853867 -55.95126,-13.331859 -15.94275,-0.246577 -29.29661,0.0098 -34.89308,0.669784 -19.0977,2.252315 -81.817,14.599045 -98.71399,19.432525 -11.67168,3.33876 -36.24457,15.5657 -50.63749,25.19613 -6.57703,4.40076 -12.53729,8.22357 -13.24501,8.49516 -2.5363,0.97326 -16.70246,12.13407 -23.72079,18.68842 -7.168795,6.69486 -13.326408,14.99942 -17.945461,24.20244 -2.247359,4.47764 -2.470117,5.92634 -2.470117,16.06435 0,10.80572 0.100491,11.35257 3.321114,18.07288 5.200678,10.852 11.513544,16.37671 27.973044,24.48062 16.74986,8.24687 20.33896,9.41877 32.81065,10.71327 13.2656,1.3769 22.15529,0.42214 25.29403,-2.71661 3.54257,-3.54256 1.66929,-4.46767 -10.43582,-5.15366 -13.2807,-0.75261 -19.83829,-3.05427 -26.16497,-9.1837 -5.74882,-5.56958 -6.99405,-9.82152 -6.2541,-21.35526 1.51978,-23.68918 15.43367,-46.12539 38.15192,-61.52014 10.59926,-7.18247 21.19837,-12.17971 38.53451,-18.16815 40.46602,-13.97822 76.11782,-18.96087 96.05107,-13.42398 4.11895,1.14413 8.20981,2.08023 9.09079,2.08023 7.06088,0 40.65683,15.59987 52.4635,24.36079 7.89305,5.85689 14.65636,13.35007 16.94104,18.76929 1.80882,4.29049 1.58732,13.22866 -0.47635,19.22223 -4.54481,13.19961 -17.01448,34.02593 -23.9769,40.04521 -4.36296,3.77195 -23.28091,13.337 -32.34746,16.35511 -9.91727,3.30131 -16.93993,3.93556 -53.42889,4.82546 -47.75268,1.1646 -57.511,2.59031 -61.72245,9.01779 -5.15367,7.86549 -0.83083,42.1493 7.13102,56.55507 1.43385,2.59434 3.77304,7.68867 5.19822,11.32075 1.42517,3.63208 4.93008,10.55392 7.78867,15.38189 7.05051,11.90779 11.74628,14.94552 23.46839,15.18192 3.94328,0.0795 5.17432,-0.31424 6.97514,-2.23114 z"
     id="path3775"
     inkscape:connector-curvature="0"
     transform="scale(0.74999999)" />
  <path
     style="fill:none;stroke-width:0.94339621"
     d="m 126.39577,645.14151 c -0.24484,-0.38915 -3.28766,-2.1934 -6.76183,-4.00943 -14.31656,-7.48364 -24.036456,-24.747 -24.036456,-42.69082 0,-12.51486 5.425886,-31.24946 14.383336,-49.66302 5.70924,-11.73632 24.27557,-39.63006 33.54413,-50.39612 23.52695,-27.32816 56.48827,-51.99601 86.97819,-65.09343 16.85074,-7.2385 25.3992,-10.46811 26.03229,-9.83502 1.6968,1.6968 -14.91856,43.16903 -22.21715,55.45438 -6.01614,10.12665 -12.32142,15.66425 -34.71562,30.48887 -25.18926,16.67492 -33.11183,22.9566 -48.8594,38.73984 -13.51792,13.54855 -20.20506,22.74425 -27.47965,37.78815 -4.26189,8.81363 -4.5736,9.96806 -4.87642,18.06033 -0.5355,14.3097 3.0328,25.44229 11.04582,34.46141 2.14518,2.41453 3.90032,4.81014 3.90032,5.3236 0,1.74683 -5.96011,2.92489 -6.93756,1.37126 z"
     id="path3777"
     inkscape:connector-curvature="0"
     transform="scale(0.74999999)" />
  <path
     style="fill:#ffffff;stroke-width:0.94339621"
     d="m 126.39577,645.14151 c -0.24484,-0.38915 -3.28766,-2.1934 -6.76183,-4.00943 -14.31656,-7.48364 -24.036456,-24.747 -24.036456,-42.69082 0,-12.51486 5.425886,-31.24946 14.383336,-49.66302 5.70924,-11.73632 24.27557,-39.63006 33.54413,-50.39612 23.52695,-27.32816 56.48827,-51.99601 86.97819,-65.09343 16.85074,-7.2385 25.3992,-10.46811 26.03229,-9.83502 1.6968,1.6968 -14.91856,43.16903 -22.21715,55.45438 -6.01614,10.12665 -12.32142,15.66425 -34.71562,30.48887 -25.18926,16.67492 -33.11183,22.9566 -48.8594,38.73984 -13.51792,13.54855 -20.20506,22.74425 -27.47965,37.78815 -4.26189,8.81363 -4.5736,9.96806 -4.87642,18.06033 -0.5355,14.3097 3.0328,25.44229 11.04582,34.46141 2.14518,2.41453 3.90032,4.81014 3.90032,5.3236 0,1.74683 -5.96011,2.92489 -6.93756,1.37126 z"
     id="path3811"
     inkscape:connector-curvature="0"
     transform="scale(0.74999999)" />
  <path
     style="fill:#ffffff;stroke-width:0.94339621"
     d="m 247.26167,356.23046 c -7.55715,-2.27549 -15.14905,-11.8291 -21.16458,-26.63341 -1.30664,-3.21565 -3.76183,-8.62209 -5.45597,-12.0143 -6.37553,-12.76577 -9.9493,-28.59109 -9.9493,-44.05738 0,-19.63197 2.17894,-20.44728 58.96227,-22.06206 40.15622,-1.14195 47.76081,-1.88257 58.63371,-5.71044 11.11484,-3.91304 26.04536,-11.36848 31.1599,-15.55946 4.95339,-4.05893 11.9221,-14.1498 18.17003,-26.31065 9.08758,-17.68789 10.54176,-26.29402 5.98879,-35.44281 -10.92804,-21.95895 -63.89087,-46.83453 -98.85809,-46.43167 -31.96662,0.36828 -89.70353,17.22215 -113.00256,32.98636 -12.20312,8.25668 -20.36317,16.37006 -27.33145,27.17517 -8.39122,13.01155 -12.00067,24.79765 -11.98982,39.15094 0.008,10.02558 1.51634,14.65081 6.2143,19.05044 5.95967,5.58123 18.26771,9.22856 31.19536,9.24433 3.2123,0.004 6.06479,0.36994 6.33885,0.81339 0.27406,0.44344 -0.58594,1.82316 -1.91111,3.06603 -2.31521,2.17143 -2.93187,2.25735 -15.77281,2.19785 -17.0593,-0.079 -21.63364,-1.26567 -40.0437,-10.38759 -17.41158,-8.6272 -22.498159,-13.04401 -28.108301,-24.40722 -3.631412,-7.35533 -3.701969,-7.69695 -3.701969,-17.92453 v -10.42628 l 4.008025,-7.38115 c 9.436555,-17.37828 19.713115,-27.05543 48.822165,-45.97443 15.92618,-10.35099 32.98786,-19.61792 44.87616,-24.37418 17.9264,-7.17197 88.99146,-21.420576 118.34611,-23.7285 16.0813,-1.264345 41.33247,-0.533295 52.34377,1.515409 10.06345,1.872355 42.75136,18.051051 50.17022,24.831471 6.31665,5.77306 13.75116,16.32756 18.48649,26.2446 3.42781,7.17871 3.5206,7.6609 3.82209,19.85992 l 0.30899,12.50258 -4.82233,13.83038 c -5.97736,17.14295 -10.53906,26.01006 -18.49915,35.95895 -15.72527,19.65414 -46.08465,41.85825 -65.97575,48.25303 -26.83736,8.62791 -48.09734,8.63809 -73.17422,0.035 -6.00054,-2.05859 -11.83781,-3.74289 -12.9717,-3.74289 -2.4087,0 -5.9417,3.19061 -5.46061,4.93143 0.18249,0.66035 3.33385,10.54027 7.00301,21.95536 7.37031,22.92966 10.01267,35.49061 10.05027,47.77575 0.0323,10.54561 -1.1583,12.16695 -8.84768,12.04883 -2.90307,-0.0446 -6.4398,-0.43082 -7.85941,-0.85827 z"
     id="path3813"
     inkscape:connector-curvature="0"
     transform="scale(0.74999999)" />
  <path
     style="fill:#ffffff;stroke-width:0.94339621"
     d="m 247.75757,414.63618 c -8.51701,-4.21587 -13.28873,-12.73084 -12.21792,-21.80244 0.63624,-5.39005 2.47673,-9.10501 6.98081,-14.09049 6.1694,-6.82879 15.02592,-9.47072 17.60453,-5.2515 0.86331,1.4126 0.51979,2.12886 -2.03601,4.24529 -2.79737,2.31646 -3.0723,3.01374 -3.04966,7.73466 0.0335,6.98324 2.13058,16.32985 5.08004,22.64151 l 2.42468,5.18868 -2.9003,0.60627 c -1.59517,0.33345 -3.37041,1.07637 -3.94498,1.65094 -1.51912,1.51912 -3.46446,1.29303 -7.94119,-0.92292 z"
     id="path3815"
     inkscape:connector-curvature="0"
     transform="scale(0.74999999)" />
  <path
     style="fill:#ffffff;stroke-width:0.94339621"
     d="m 265.40881,366.58531 c 0,-3.84897 2.92114,-8.75747 8.40531,-14.12372 6.7695,-6.62396 15.15244,-10.90516 24.2076,-12.36293 5.86337,-0.94392 7.5738,-0.84328 14.15094,0.8327 16.69682,4.25466 24.87023,9.13748 26.7616,15.98747 1.00943,3.65582 -0.75947,9.68494 -2.84148,9.68494 -0.61073,0 -4.77155,-1.45774 -9.24625,-3.23943 -22.09418,-8.7972 -40.74015,-7.91591 -57.59177,2.72205 -3.71128,2.34283 -3.84595,2.3603 -3.84595,0.49892 z"
     id="path3817"
     inkscape:connector-curvature="0"
     transform="scale(0.74999999)" />
  <path
     style="fill:#ffffff;stroke-width:0.94339621"
     d="m 265.40881,365.64039 c 0,-3.38132 4.46054,-10.08428 9.89252,-14.8657 6.14519,-5.40921 14.62258,-9.37222 22.90129,-10.7059 6.22267,-1.00246 7.60586,-0.90552 15.09434,1.05781 19.41767,5.09091 28.21351,12.38024 25.80517,21.38536 -1.18197,4.41957 -2.92722,4.66454 -10.58507,1.4858 -14.13566,-5.86764 -27.99242,-7.97128 -38.92247,-5.90893 -3.4943,0.65933 -10.17912,3.11365 -15.21003,5.58435 l -8.97575,4.40802 z"
     id="path3819"
     inkscape:connector-curvature="0"
     transform="scale(0.74999999)" />
  <path
     style="fill:#ffffff;stroke-width:0.94339621"
     d="m 286.01711,414.30817 c -5.63202,-2.15149 -8.14007,-4.23429 -10.18462,-8.45775 -3.74282,-7.73164 -1.81304,-17.97762 4.80126,-25.49187 4.61906,-5.24754 18.9598,-12.81615 24.25774,-12.80253 7.01584,0.0181 16.91279,7.95401 20.43635,16.38708 1.77062,4.2377 1.77702,7.50032 0.0214,10.89541 -1.85957,3.59602 -15.86138,16.50088 -20.16605,18.58617 -4.43284,2.14739 -14.62733,2.61732 -19.16603,0.88349 z"
     id="path3821"
     inkscape:connector-curvature="0"
     transform="scale(0.74999999)" />
  <path
     style="fill:#ffffff;stroke-width:0.94339621"
     d="m 291.85636,447.11332 c -8.15214,-2.8497 -13.88811,-8.38259 -19.27715,-18.59465 -3.60062,-6.82306 -1.73681,-7.98651 6.62477,-4.1354 4.15992,1.91594 6.04825,2.11945 19.69539,2.12264 13.96375,0.003 15.36336,-0.15547 18.686,-2.11912 5.9658,-3.52573 7.2574,-2.66791 7.2574,4.82008 0,4.80013 -1.40549,6.9451 -7.46571,11.39371 -8.29933,6.09227 -18.94897,8.81 -25.5207,6.51274 z"
     id="path3823"
     inkscape:connector-curvature="0"
     transform="scale(0.74999999)" />
  <path
     style="fill:#ffffff;stroke-width:0.94339621"
     d="m 421.3055,669.94038 c -3.24267,-0.73212 -8.66564,-2.69473 -12.05106,-4.36137 -7.12025,-3.50528 -17.99167,-12.28795 -20.73243,-16.74906 -1.03773,-1.6891 -3.28043,-4.80575 -4.98377,-6.92587 -1.70334,-2.12013 -2.93182,-4.01993 -2.72997,-4.22179 0.20186,-0.20186 3.96619,1.35999 8.36518,3.47078 11.11458,5.33315 20.0034,6.40524 40.61748,4.89894 21.6302,-1.58056 30.85601,-4.44502 45.35053,-14.0806 14.54712,-9.67056 47.22935,-46.09831 55.26091,-61.59405 5.00161,-9.64989 8.1737,-18.88639 9.56601,-27.8543 1.44476,-9.30579 1.76878,-36.46964 0.44043,-36.9217 -1.11823,-0.38055 -29.06464,-15.88236 -35.84906,-19.88541 -17.45793,-10.30076 -20.27812,-12.3892 -30.18868,-22.35559 -5.70755,-5.73971 -12.92453,-13.60287 -16.03774,-17.4737 -10.06736,-12.51732 -19.16196,-18.46469 -40.46084,-26.4592 l -10.27216,-3.85564 -27.77605,1.45937 c -35.58223,1.86952 -32.53006,2.00092 -36.00165,-1.54991 -2.32892,-2.38208 -2.93781,-3.8076 -2.92141,-6.83962 0.0403,-7.45158 6.91912,-18.42692 12.75654,-20.35344 2.46727,-0.81427 9.33258,-0.82121 27.56547,-0.0279 60.92674,2.65105 72.30474,5.02345 106.35539,22.17598 46.50471,23.42609 68.49134,42.22641 81.6844,69.84668 5.9042,12.36071 7.46094,18.71867 8.86765,36.21686 1.59639,19.85757 0.64608,25.08028 -9.20423,50.58455 -3.11153,8.05634 -12.1182,24.20971 -15.77534,28.29293 -0.92946,1.03773 -3.48435,4.85849 -5.67755,8.49056 -6.01934,9.96841 -13.39853,18.53057 -25.70353,29.82412 -13.10929,12.03173 -26.24322,21.44418 -35.30139,25.29877 -3.57899,1.52299 -12.43487,4.78189 -19.67976,7.24198 -12.90301,4.3814 -13.44273,4.4787 -26.38006,4.7558 -8.91383,0.19094 -15.12424,-0.14984 -19.10331,-1.04821 z"
     id="path3825"
     inkscape:connector-curvature="0"
     transform="scale(0.74999999)" />
  <path
     style="fill:#ffffff;stroke-width:0.94339621"
     d="m 374.21711,619.69987 c -0.90857,-1.44342 -2.56087,-3.74781 -3.67178,-5.12088 -1.11091,-1.37306 -3.20013,-6.12484 -4.6427,-10.55949 -2.27097,-6.98126 -2.56063,-9.11441 -2.159,-15.89975 0.60385,-10.20186 3.62164,-18.96668 9.62323,-27.9496 5.57914,-8.35062 12.1109,-13.74092 19.17884,-15.82725 4.52285,-1.33507 5.37774,-1.3298 9.55886,0.0589 2.52548,0.83883 5.26231,2.26607 6.08184,3.17165 4.15711,4.59355 5.82543,16.35327 3.07447,21.67147 -1.34864,2.60722 -6.73553,7.89676 -19.84395,19.48536 -5.3532,4.73254 -8.04881,7.93202 -9.6744,11.48279 -2.56114,5.59426 -5.27553,17.43889 -4.47468,19.52588 1.00504,2.61909 -1.3969,2.58829 -3.05073,-0.0391 z"
     id="path3827"
     inkscape:connector-curvature="0"
     transform="scale(0.74999999)" />
  <path
     style="fill:#000000;stroke-width:0.94339621"
     d="M 0.31446541,400.09434 V 0.56603774 H 333.33333 666.3522 V 400.09434 799.62264 H 333.33333 0.31446541 Z M 457.09082,669.9596 c 10.58882,-2.7512 25.0133,-7.88293 33.37551,-11.87385 15.24562,-7.27606 45.50086,-34.50962 54.99319,-49.50084 2.62835,-4.15095 6.17108,-9.45755 7.87274,-11.79246 14.29984,-19.62132 26.41029,-50.81494 26.32825,-67.81527 -0.0475,-9.84659 -1.76806,-26.82102 -3.32745,-32.82769 -5.84309,-22.50733 -21.8051,-44.39594 -44.02923,-60.37704 -19.8315,-14.26058 -55.33219,-33.05139 -74.07,-39.20586 -15.75381,-5.17436 -35.35663,-7.48276 -77.81698,-9.16361 -15.23387,-0.60306 -24.35791,-0.59853 -26.57333,0.0132 -6.32759,1.74713 -13.8788,13.3851 -13.8972,21.41846 -0.008,3.23849 0.59429,4.68181 3.08467,7.3993 l 3.09389,3.37601 30.63253,-1.57357 30.63253,-1.57359 9.23525,3.3451 c 12.44482,4.50764 23.87041,10.27764 30.22037,15.26151 2.88524,2.26451 9.31453,9.19909 14.28731,15.41017 9.83311,12.28167 17.8826,20.13834 25.97405,25.35189 2.85377,1.83877 7.09648,4.64854 9.42824,6.24393 2.33177,1.59539 7.85064,4.83905 12.26415,7.20814 24.99829,13.41854 31.17306,17.22663 31.76645,19.59087 0.93646,3.73117 -0.41321,28.15646 -2.02249,36.60155 -2.01432,10.57062 -8.28271,25.50244 -13.87106,33.04198 -13.26385,17.89502 -36.50565,42.95549 -47.13964,50.82831 -6.83832,5.06271 -19.51268,11.31084 -26.70682,13.16578 -12.77371,3.29356 -40.05928,4.32763 -50.32575,1.90724 -3.27059,-0.77106 -8.92475,-2.94317 -12.56481,-4.8269 -8.15662,-4.22106 -9.95986,-3.36539 -5.11881,2.42897 1.84093,2.20345 3.34714,4.42215 3.34714,4.93044 0,1.66299 10.5662,12.04674 15.7798,15.50733 10.75515,7.13886 19.62709,9.51228 36.23956,9.6948 7.85897,0.0863 11.96381,-0.39003 18.90794,-2.19427 z M 133.62646,644.79378 c 0.75078,-1.19928 -0.0178,-2.71763 -3.58179,-7.07547 -8.40462,-10.27682 -11.25147,-19.27814 -10.71409,-33.87637 0.31627,-8.59161 0.44858,-9.03567 5.91656,-19.85686 7.37767,-14.60051 14.39808,-23.94183 28.30639,-37.66433 13.65392,-13.47149 25.1237,-22.41989 45.34458,-35.37654 27.28233,-17.48133 31.48799,-21.64088 40.53957,-40.09515 9.2343,-18.8268 19.62913,-46.75081 18.00701,-48.37292 -0.34714,-0.34714 -2.62411,0.13923 -5.05994,1.08081 -2.43582,0.9416 -6.55142,2.47175 -9.14576,3.40035 -17.69202,6.33257 -41.27559,19.1593 -56.51728,30.73886 -4.05823,3.08315 -8.9417,6.66705 -10.85217,7.96422 -11.37385,7.72258 -34.34553,31.87054 -43.97466,46.22641 -3.30627,4.92925 -8.59775,12.7701 -11.75884,17.42412 -10.43967,15.3701 -20.537075,38.74534 -24.019367,55.60417 -1.964934,9.51286 -1.8415,17.64118 0.401038,26.40944 3.662069,14.31854 11.255949,24.68093 22.396789,30.56202 3.22531,1.70258 6.13031,3.52621 6.45557,4.05249 0.90031,1.45672 7.17211,0.58677 8.25639,-1.14525 z M 377.9994,617.72329 c 0.65749,-7.07436 3.28534,-15.618 6.30814,-20.50899 1.07448,-1.73855 6.84199,-7.32063 12.81669,-12.40463 13.47401,-11.46531 16.39778,-15.55627 16.39778,-22.94384 0,-9.95288 -3.49595,-15.72387 -11.09341,-18.31258 -17.52299,-5.97068 -39.81761,20.66568 -39.82342,47.57883 -9.4e-4,6.38526 3.84017,19.54879 6.95779,23.84167 0.83948,1.15595 2.58845,3.6937 3.8866,5.63946 1.29814,1.94575 2.7185,3.53773 3.15636,3.53773 0.43785,0 1.0649,-2.89244 1.39347,-6.42765 z M 307.60982,446.70783 c 5.80953,-1.98822 12.25191,-6.22691 15.70926,-10.33573 1.80586,-2.14614 2.46363,-3.98716 2.45421,-6.86902 -0.0212,-6.49223 -0.80452,-8.18233 -3.79213,-8.18233 -1.45285,0 -2.78815,0.43983 -2.96733,0.97738 -0.74944,2.24831 -8.06646,3.65758 -19.20132,3.6982 -10.98431,0.0401 -16.51757,-0.85251 -23.8145,-3.84157 -3.63354,-1.48842 -6.52791,-0.24651 -6.0432,2.59301 0.52921,3.10025 9.01696,15.6407 12.46391,18.41517 1.83187,1.47448 5.65262,3.51517 8.49057,4.53485 5.61233,2.01654 8.39808,1.85141 16.70053,-0.98996 z m -51.10774,-30.54575 c 1.00719,-0.7618 2.83462,-1.39859 4.06097,-1.4151 1.91524,-0.0258 2.162,-0.39591 1.74963,-2.62434 -0.26404,-1.42689 -1.62281,-5.29746 -3.01948,-8.60127 -1.89536,-4.48346 -2.67191,-8.22824 -3.06193,-14.76545 l -0.52254,-8.75853 2.96324,-1.53236 c 4.8474,-2.50668 3.06754,-8.08767 -2.57928,-8.08767 -3.63788,0 -11.88752,4.32865 -14.76344,7.74649 -10.91437,12.971 -8.45494,30.0778 5.31046,36.93739 5.72449,2.85263 7.31201,3.02984 9.86237,1.10084 z m 45.18587,-0.60494 c 4.86184,-1.34979 8.97243,-4.20356 16.40312,-11.38782 9.92387,-9.59476 11.31215,-13.38085 7.76823,-21.18537 -3.87499,-8.53357 -14.01715,-16.38018 -21.1723,-16.38018 -4.18393,0 -19.47035,7.61354 -23.62192,11.76512 -9.15893,9.15892 -10.61483,25.34599 -2.9291,32.56636 4.92578,4.62752 15.82652,6.76671 23.55197,4.62189 z m -15.08801,-56.08053 c 10.90376,-3.12841 31.27787,-0.22134 44.10147,6.29261 1.92508,0.97787 4.21319,1.77795 5.08468,1.77795 4.57442,0 5.67406,-9.58479 1.76041,-15.34425 -3.39506,-4.99629 -14.46656,-10.0921 -28.05636,-12.91334 -6.77066,-1.40558 -16.15603,0.058 -24.12444,3.76206 -7.7606,3.60745 -18.30854,13.9048 -19.98919,19.51432 -2.08648,6.96405 -1.04064,7.32228 7.77267,2.66231 4.30412,-2.27576 10.35696,-4.86401 13.45076,-5.75166 z m -24.05025,-3.69111 c 3.34506,-3.56065 3.46435,-9.56928 0.52889,-26.63992 -1.73206,-10.07245 -4.03052,-19.17967 -7.09378,-28.10784 -9.09399,-26.50522 -9.18821,-26.88096 -7.12019,-28.39313 2.63011,-1.92319 6.43534,-1.63185 12.60547,0.96513 14.31293,6.02423 33.99057,9.01763 48.5148,7.38017 11.7431,-1.32393 30.09608,-5.85941 36.81305,-9.09744 28.13023,-13.56064 57.1567,-39.23607 68.28163,-60.39867 1.93209,-3.67537 5.65151,-12.62588 8.26536,-19.89003 l 4.75246,-13.20754 0.0237,-13.67925 0.0237,-13.67924 -3.50156,-7.36589 c -5.07091,-10.66699 -11.22486,-19.46856 -18.02654,-25.782 -4.65753,-4.32322 -9.65402,-7.41407 -22.87592,-14.15117 -25.38484,-12.934601 -25.04601,-12.853867 -55.95126,-13.331859 -15.94275,-0.246577 -29.29661,0.0098 -34.89308,0.669784 -19.0977,2.252315 -81.817,14.599045 -98.71399,19.432525 -11.67168,3.33876 -36.24457,15.5657 -50.63749,25.19613 -6.57703,4.40076 -12.53729,8.22357 -13.24501,8.49516 -2.5363,0.97326 -16.70246,12.13407 -23.72079,18.68842 -7.168795,6.69486 -13.326408,14.99942 -17.945461,24.20244 -2.247359,4.47764 -2.470117,5.92634 -2.470117,16.06435 0,10.80572 0.100491,11.35257 3.321114,18.07288 5.200678,10.852 11.513544,16.37671 27.973044,24.48062 16.74986,8.24687 20.33896,9.41877 32.81065,10.71327 13.2656,1.3769 22.15529,0.42214 25.29403,-2.71661 3.48211,-3.4821 1.64351,-4.46954 -9.49214,-5.09786 -11.6396,-0.65675 -20.56158,-3.39739 -25.88004,-7.94979 -5.7405,-4.91366 -6.85685,-8.09897 -6.85685,-19.5649 0,-11.16015 2.10937,-21.07658 6.20344,-29.16316 9.52832,-18.82033 24.39127,-33.0452 45.6626,-43.70227 28.63572,-14.34668 82.91821,-27.50372 105.59296,-25.59372 28.71381,2.4187 67.44593,18.91563 84.53632,36.00602 12.54865,12.54864 13.08108,22.3778 2.37332,43.81272 -5.57247,11.155 -13.49042,22.84766 -18.20395,26.88226 -4.43192,3.79357 -21.18121,12.25512 -31.4542,15.89031 -10.19781,3.60858 -18.61113,4.41616 -55.87003,5.36283 -46.39629,1.17884 -56.00895,2.6145 -60.18554,8.98878 -5.15367,7.86549 -0.83083,42.1493 7.13102,56.55507 1.43385,2.59434 3.77304,7.68867 5.19822,11.32075 1.42517,3.63208 4.93008,10.55392 7.78867,15.38189 7.05051,11.90779 11.74628,14.94552 23.46839,15.18192 3.94328,0.0795 5.17432,-0.31424 6.97514,-2.23114 z"
     id="path3829"
     inkscape:connector-curvature="0"
     transform="scale(0.74999999)" />
</svg>
